<svg width="153" height="24" viewBox="0 0 153 24" fill="none" xmlns="http://www.w3.org/2000/svg">
<path d="M19.136 12.216L22.864 5.8H24.384L19.44 14.344C18.864 15.336 18.2347 16.04 17.552 16.456C16.8693 16.872 16.0587 17.0533 15.12 17L15.36 15.656C15.968 15.6987 16.48 15.5973 16.896 15.352C17.312 15.1067 17.696 14.6853 18.048 14.088L18.224 13.784L15.712 5.8H17.136L19.136 12.216ZM26.2694 17.208C25.0854 17.208 24.1467 16.7813 23.4534 15.928C22.7707 15.0747 22.536 14.04 22.7494 12.824C22.9627 11.6293 23.5174 10.664 24.4134 9.928C25.3307 9.17067 26.3814 8.792 27.5654 8.792C28.3547 8.792 29.0427 8.97867 29.6294 9.352C30.2267 9.72533 30.6427 10.232 30.8774 10.872L29.6454 11.512C29.2934 10.6053 28.5627 10.152 27.4534 10.152C26.6427 10.152 25.9227 10.4187 25.2934 10.952C24.664 11.4853 24.28 12.1467 24.1414 12.936C24.0027 13.7467 24.1467 14.4347 24.5734 15C25 15.5547 25.624 15.832 26.4454 15.832C26.9787 15.832 27.4747 15.7093 27.9334 15.464C28.392 15.208 28.7654 14.856 29.0534 14.408L30.1734 15.144C29.768 15.7947 29.2187 16.3013 28.5254 16.664C27.8427 17.0267 27.0907 17.208 26.2694 17.208ZM33.2148 9H39.1508L37.7428 17H36.3508L37.5188 10.344H34.3668L33.8068 13.608C33.5721 14.9627 33.1508 15.896 32.5428 16.408C31.9561 16.888 31.1668 17.0853 30.1747 17L30.3987 15.688C30.9534 15.752 31.3908 15.624 31.7108 15.304C32.0308 14.984 32.2654 14.408 32.4148 13.576L33.2148 9ZM43.708 17.208C42.5347 17.208 41.5853 16.7973 40.86 15.976C40.1453 15.1653 39.9 14.1253 40.124 12.856C40.348 11.6187 40.9347 10.632 41.884 9.896C42.8333 9.16 43.8893 8.792 45.052 8.792C46.1933 8.792 47.1107 9.20267 47.804 10.024C48.4973 10.8453 48.7373 11.8747 48.524 13.112C48.3213 14.36 47.7507 15.3573 46.812 16.104C45.884 16.84 44.8493 17.208 43.708 17.208ZM43.82 15.848C44.5987 15.848 45.308 15.592 45.948 15.08C46.5987 14.568 46.9987 13.864 47.148 12.968C47.2973 12.104 47.1373 11.4213 46.668 10.92C46.1987 10.408 45.5853 10.152 44.828 10.152C44.0707 10.1733 43.372 10.4293 42.732 10.92C42.1027 11.4107 41.6973 12.104 41.516 13C41.3667 13.9067 41.5213 14.6107 41.98 15.112C42.4493 15.624 43.0627 15.8693 43.82 15.848ZM56.6926 11.288C56.554 12.056 56.1646 12.6053 55.5246 12.936C56.282 13.3307 56.586 13.9707 56.4366 14.856C56.3086 15.5173 55.994 16.04 55.4926 16.424C54.9913 16.808 54.3246 17 53.4926 17H49.4926L50.9006 9H54.5806C55.306 9 55.8713 9.224 56.2766 9.672C56.6713 10.0987 56.81 10.6373 56.6926 11.288ZM54.2926 10.248H52.0366L51.6686 12.344H53.8606C54.7353 12.344 55.226 11.9867 55.3326 11.272C55.3966 10.952 55.338 10.7013 55.1566 10.52C54.9753 10.3387 54.6873 10.248 54.2926 10.248ZM55.0926 14.632C55.146 14.3013 55.0766 14.0453 54.8846 13.864C54.7033 13.672 54.41 13.576 54.0046 13.576H51.4606L51.0766 15.736H53.6366C54.0206 15.736 54.3406 15.64 54.5966 15.448C54.8633 15.2453 55.0286 14.9733 55.0926 14.632ZM59.3475 14.536L64.7555 9H65.8755L64.4675 17H63.0915L64.0515 11.464L58.6595 17H57.5395L58.9475 9H60.3235L59.3475 14.536ZM70.5704 9H73.9784L72.5704 17H71.1944L71.7064 14.12H70.4904L67.7704 17H66.0904L68.9544 14.008C68.3997 13.8267 67.973 13.5067 67.6744 13.048C67.365 12.5573 67.2637 12.0293 67.3704 11.464C67.4984 10.7387 67.8557 10.1467 68.4424 9.688C69.029 9.22933 69.7384 9 70.5704 9ZM69.9464 12.872H71.9144L72.3784 10.296H70.3944C69.9784 10.296 69.6157 10.4187 69.3064 10.664C68.997 10.8987 68.8104 11.208 68.7464 11.592C68.6717 11.976 68.7464 12.2853 68.9704 12.52C69.205 12.7547 69.5304 12.872 69.9464 12.872ZM82.1521 15.32L85.6081 9H87.1601L82.4081 17.496C81.3415 19.416 79.9975 20.3173 78.3761 20.2L78.6001 18.904C79.0908 18.9467 79.5175 18.84 79.8801 18.584C80.2535 18.328 80.6161 17.9013 80.9681 17.304L81.2081 16.92L79.1601 9H80.5681L82.1521 15.32ZM92.6905 12.824L93.3625 9H94.7545L93.3465 17H91.9545L92.4505 14.168C91.6612 14.4133 90.9305 14.536 90.2585 14.536C89.2558 14.536 88.5092 14.2747 88.0185 13.752C87.5385 13.2293 87.3732 12.5307 87.5225 11.656L87.9865 9H89.3785L88.9305 11.576C88.7385 12.6853 89.2558 13.24 90.4825 13.24C91.0905 13.24 91.8265 13.1013 92.6905 12.824ZM103.253 10.488L103.509 9H104.901L103.493 17H102.101L102.309 15.864C101.477 16.76 100.411 17.208 99.1094 17.208C97.9574 17.208 97.056 16.7707 96.4054 15.896C95.7547 15.032 95.536 14.008 95.7494 12.824C95.952 11.5973 96.4907 10.6213 97.3654 9.896C98.2294 9.16 99.2054 8.792 100.293 8.792C101.68 8.792 102.667 9.35733 103.253 10.488ZM102.789 13.064C102.96 12.1573 102.8 11.4427 102.309 10.92C101.829 10.3973 101.189 10.136 100.389 10.136C99.632 10.136 98.9387 10.3867 98.3094 10.888C97.6694 11.4 97.28 12.0827 97.1414 12.936C96.992 13.768 97.1414 14.4613 97.5894 15.016C98.0587 15.5813 98.6934 15.864 99.4934 15.864C100.304 15.864 101.019 15.6027 101.637 15.08C102.256 14.5467 102.64 13.8747 102.789 13.064ZM109.41 17.208C108.226 17.208 107.287 16.7813 106.594 15.928C105.911 15.0747 105.677 14.04 105.89 12.824C106.103 11.6293 106.658 10.664 107.554 9.928C108.471 9.17067 109.522 8.792 110.706 8.792C111.495 8.792 112.183 8.97867 112.77 9.352C113.367 9.72533 113.783 10.232 114.018 10.872L112.786 11.512C112.434 10.6053 111.703 10.152 110.594 10.152C109.783 10.152 109.063 10.4187 108.434 10.952C107.805 11.4853 107.421 12.1467 107.282 12.936C107.143 13.7467 107.287 14.4347 107.714 15C108.141 15.5547 108.765 15.832 109.586 15.832C110.119 15.832 110.615 15.7093 111.074 15.464C111.533 15.208 111.906 14.856 112.194 14.408L113.314 15.144C112.909 15.7947 112.359 16.3013 111.666 16.664C110.983 17.0267 110.231 17.208 109.41 17.208ZM114.755 9H121.603L121.363 10.344H118.643L117.475 17H116.083L117.251 10.344H114.531L114.755 9ZM123.223 14.536L128.631 9H129.751L128.343 17H126.967L127.927 11.464L122.535 17H121.415L122.823 9H124.199L123.223 14.536ZM134.445 9H137.853L136.445 17H135.069L135.581 14.12H134.365L131.645 17H129.965L132.829 14.008C132.275 13.8267 131.848 13.5067 131.549 13.048C131.24 12.5573 131.139 12.0293 131.245 11.464C131.373 10.7387 131.731 10.1467 132.317 9.688C132.904 9.22933 133.613 9 134.445 9ZM133.821 12.872H135.789L136.253 10.296H134.269C133.853 10.296 133.491 10.4187 133.181 10.664C132.872 10.8987 132.685 11.208 132.621 11.592C132.547 11.976 132.621 12.2853 132.845 12.52C133.08 12.7547 133.405 12.872 133.821 12.872Z" fill="white"/>
<path d="M3.93343 5.79813C4.51151 2.72567 7.19499 0.5 10.3213 0.5H144.723C148.744 0.5 151.8 4.11412 151.133 8.0793L149.449 18.0793C148.922 21.2086 146.212 23.5 143.039 23.5H8.43985C4.3683 23.5 1.2991 19.7995 2.05195 15.7981L3.93343 5.79813Z" stroke="#00FFFF"/>
</svg>
