<svg width="105" height="62" viewBox="0 0 105 62" fill="none" xmlns="http://www.w3.org/2000/svg">
<path d="M2.61675 44.555C2.83704 43.0864 4.09857 42 5.58356 42H101.516C103.351 42 104.755 43.6312 104.483 45.445L102.383 59.445C102.163 60.9136 100.901 62 99.4164 62H3.48356C1.64945 62 0.244681 60.3688 0.516753 58.555L2.61675 44.555Z" fill="white"/>
<path d="M53.13 33.13C51.03 36.1 48.045 37.585 44.175 37.585C40.305 37.585 37.32 36.1 35.22 33.13C33.09 30.13 32.025 26.17 32.025 21.25C32.025 16.33 33.09 12.37 35.22 9.37C37.32 6.4 40.305 4.915 44.175 4.915C48.045 4.915 51.03 6.4 53.13 9.37C55.26 12.37 56.325 16.33 56.325 21.25C56.325 26.17 55.26 30.13 53.13 33.13ZM36.21 21.25C36.21 25.15 36.9 28.165 38.28 30.295C39.66 32.425 41.625 33.49 44.175 33.49C46.725 33.49 48.69 32.425 50.07 30.295C51.48 28.165 52.185 25.15 52.185 21.25C52.185 17.35 51.48 14.335 50.07 12.205C48.69 10.045 46.725 8.965 44.175 8.965C41.625 8.965 39.66 10.03 38.28 12.16C36.9 14.29 36.21 17.32 36.21 21.25Z" fill="white"/>
<path d="M62.24 25H72.68V27.496H68.768V37H66.176V27.496H62.24V25ZM74.4339 25H82.4739V27.496H77.0259V37H74.4339V25Z" fill="white"/>
<path d="M12.664 48.572L10.676 51.204C11.404 51.372 11.9827 51.708 12.412 52.212C12.8507 52.7067 13.07 53.3133 13.07 54.032C13.07 55.012 12.7387 55.782 12.076 56.342C11.4227 56.902 10.6107 57.182 9.64 57.182C8.87467 57.182 8.198 57.0093 7.61 56.664C7.022 56.3093 6.602 55.8053 6.35 55.152L7.722 54.354C8.01133 55.194 8.65067 55.614 9.64 55.614C10.2 55.614 10.6433 55.474 10.97 55.194C11.2967 54.9047 11.46 54.5173 11.46 54.032C11.46 53.5467 11.2967 53.164 10.97 52.884C10.6433 52.604 10.2 52.464 9.64 52.464H9.276L8.632 51.498L10.746 48.712H6.644V47.2H12.664V48.572ZM21.6385 50.896H22.8705C23.8039 50.896 24.5925 51.176 25.2365 51.736C25.8805 52.2867 26.2025 53.052 26.2025 54.032C26.2025 55.012 25.8712 55.782 25.2085 56.342C24.5552 56.902 23.7432 57.182 22.7725 57.182C21.9792 57.182 21.2885 57 20.7005 56.636C20.1125 56.272 19.6925 55.754 19.4405 55.082L20.8265 54.284C21.0972 55.1707 21.7459 55.614 22.7725 55.614C23.3232 55.614 23.7619 55.474 24.0885 55.194C24.4245 54.9047 24.5925 54.5173 24.5925 54.032C24.5925 53.556 24.4292 53.178 24.1025 52.898C23.7759 52.6087 23.3419 52.464 22.8005 52.464H19.9445L20.3225 47.2H25.7825V48.712H21.8065L21.6385 50.896ZM34.6487 55.796C33.9767 56.72 33.034 57.182 31.8207 57.182C30.6167 57.182 29.6694 56.72 28.9787 55.796C28.3067 54.872 27.9707 53.64 27.9707 52.1C27.9707 50.56 28.3067 49.328 28.9787 48.404C29.6694 47.48 30.6167 47.018 31.8207 47.018C33.034 47.018 33.9767 47.48 34.6487 48.404C35.33 49.3187 35.6707 50.5507 35.6707 52.1C35.6707 53.6493 35.33 54.8813 34.6487 55.796ZM31.8207 55.614C32.5487 55.614 33.104 55.3107 33.4867 54.704C33.8694 54.0973 34.0607 53.2293 34.0607 52.1C34.0607 50.9707 33.8694 50.1027 33.4867 49.496C33.104 48.8893 32.5487 48.586 31.8207 48.586C31.102 48.586 30.5467 48.8893 30.1547 49.496C29.772 50.1027 29.5807 50.9707 29.5807 52.1C29.5807 53.2293 29.772 54.0973 30.1547 54.704C30.5467 55.3107 31.102 55.614 31.8207 55.614ZM44.4471 55.796C43.7751 56.72 42.8324 57.182 41.6191 57.182C40.4151 57.182 39.4677 56.72 38.7771 55.796C38.1051 54.872 37.7691 53.64 37.7691 52.1C37.7691 50.56 38.1051 49.328 38.7771 48.404C39.4677 47.48 40.4151 47.018 41.6191 47.018C42.8324 47.018 43.7751 47.48 44.4471 48.404C45.1284 49.3187 45.4691 50.5507 45.4691 52.1C45.4691 53.6493 45.1284 54.8813 44.4471 55.796ZM41.6191 55.614C42.3471 55.614 42.9024 55.3107 43.2851 54.704C43.6677 54.0973 43.8591 53.2293 43.8591 52.1C43.8591 50.9707 43.6677 50.1027 43.2851 49.496C42.9024 48.8893 42.3471 48.586 41.6191 48.586C40.9004 48.586 40.3451 48.8893 39.9531 49.496C39.5704 50.1027 39.3791 50.9707 39.3791 52.1C39.3791 53.2293 39.5704 54.0973 39.9531 54.704C40.3451 55.3107 40.9004 55.614 41.6191 55.614ZM58.7254 55.796C58.0534 56.72 57.1108 57.182 55.8974 57.182C54.6934 57.182 53.7461 56.72 53.0554 55.796C52.3834 54.872 52.0474 53.64 52.0474 52.1C52.0474 50.56 52.3834 49.328 53.0554 48.404C53.7461 47.48 54.6934 47.018 55.8974 47.018C57.1108 47.018 58.0534 47.48 58.7254 48.404C59.4068 49.3187 59.7474 50.5507 59.7474 52.1C59.7474 53.6493 59.4068 54.8813 58.7254 55.796ZM55.8974 55.614C56.6254 55.614 57.1808 55.3107 57.5634 54.704C57.9461 54.0973 58.1374 53.2293 58.1374 52.1C58.1374 50.9707 57.9461 50.1027 57.5634 49.496C57.1808 48.8893 56.6254 48.586 55.8974 48.586C55.1788 48.586 54.6234 48.8893 54.2314 49.496C53.8488 50.1027 53.6574 50.9707 53.6574 52.1C53.6574 53.2293 53.8488 54.0973 54.2314 54.704C54.6234 55.3107 55.1788 55.614 55.8974 55.614ZM68.5238 55.796C67.8518 56.72 66.9091 57.182 65.6958 57.182C64.4918 57.182 63.5444 56.72 62.8538 55.796C62.1818 54.872 61.8458 53.64 61.8458 52.1C61.8458 50.56 62.1818 49.328 62.8538 48.404C63.5444 47.48 64.4918 47.018 65.6958 47.018C66.9091 47.018 67.8518 47.48 68.5238 48.404C69.2051 49.3187 69.5458 50.5507 69.5458 52.1C69.5458 53.6493 69.2051 54.8813 68.5238 55.796ZM65.6958 55.614C66.4238 55.614 66.9791 55.3107 67.3618 54.704C67.7444 54.0973 67.9358 53.2293 67.9358 52.1C67.9358 50.9707 67.7444 50.1027 67.3618 49.496C66.9791 48.8893 66.4238 48.586 65.6958 48.586C64.9771 48.586 64.4218 48.8893 64.0298 49.496C63.6471 50.1027 63.4558 50.9707 63.4558 52.1C63.4558 53.2293 63.6471 54.0973 64.0298 54.704C64.4218 55.3107 64.9771 55.614 65.6958 55.614ZM78.3221 55.796C77.6501 56.72 76.7075 57.182 75.4941 57.182C74.2901 57.182 73.3428 56.72 72.6521 55.796C71.9801 54.872 71.6441 53.64 71.6441 52.1C71.6441 50.56 71.9801 49.328 72.6521 48.404C73.3428 47.48 74.2901 47.018 75.4941 47.018C76.7075 47.018 77.6501 47.48 78.3221 48.404C79.0035 49.3187 79.3441 50.5507 79.3441 52.1C79.3441 53.6493 79.0035 54.8813 78.3221 55.796ZM75.4941 55.614C76.2221 55.614 76.7775 55.3107 77.1601 54.704C77.5428 54.0973 77.7341 53.2293 77.7341 52.1C77.7341 50.9707 77.5428 50.1027 77.1601 49.496C76.7775 48.8893 76.2221 48.586 75.4941 48.586C74.7755 48.586 74.2201 48.8893 73.8281 49.496C73.4455 50.1027 73.2541 50.9707 73.2541 52.1C73.2541 53.2293 73.4455 54.0973 73.8281 54.704C74.2201 55.3107 74.7755 55.614 75.4941 55.614ZM85.5025 50H91.5925V51.456H89.3105V57H87.7985V51.456H85.5025V50ZM93.5956 50H98.2856V51.456H95.1076V57H93.5956V50Z" fill="#0B0B0D"/>
<path d="M6 52.8H98.4256V53.5H6V52.8Z" fill="#0B0B0D"/>
</svg>
